HIERARCHY
ROOT Hips
{
  OFFSET 14.1639 96.1 -11.6063
  CHANNELS 6 Xposition Yposition Zposition Zrotation Xrotation Yrotation
  JOINT Chest
  {
    OFFSET 0 10.5691 -1.07958
    CHANNELS 6 Xposition Yposition Zposition Zrotation Xrotation Yrotation
    JOINT Chest2
    {
      OFFSET 0 11.6675 1.08235
      CHANNELS 6 Xposition Yposition Zposition Zrotation Xrotation Yrotation
      JOINT Chest3
      {
        OFFSET 0 10.5876 0
        CHANNELS 6 Xposition Yposition Zposition Zrotation Xrotation Yrotation
        JOINT Chest4
        {
          OFFSET 0 10.5876 0
          CHANNELS 6 Xposition Yposition Zposition Zrotation Xrotation Yrotation
          JOINT Neck
          {
            OFFSET 0 14.88 0
            CHANNELS 6 Xposition Yposition Zposition Zrotation Xrotation Yrotation
            JOINT Head
            {
              OFFSET 0 9.61472 2.16553
              CHANNELS 6 Xposition Yposition Zposition Zrotation Xrotation Yrotation
              End Site
              {
                OFFSET 0 0 0
              }
            }
          }
          JOINT RightCollar
          {
            OFFSET -3.23953 8.30385 0
            CHANNELS 6 Xposition Yposition Zposition Zrotation Xrotation Yrotation
            JOINT RightShoulder
            {
              OFFSET -15.1725 0 0
              CHANNELS 6 Xposition Yposition Zposition Zrotation Xrotation Yrotation
              JOINT RightElbow
              {
                OFFSET -32.4113 0 0
                CHANNELS 6 Xposition Yposition Zposition Zrotation Xrotation Yrotation
                JOINT RightWrist
                {
                  OFFSET -26.4919 0 1.0813
                  CHANNELS 6 Xposition Yposition Zposition Zrotation Xrotation Yrotation
                  End Site
                  {
                    OFFSET 0 0 0
                  }
                }
              }
            }
          }
          JOINT LeftCollar
          {
            OFFSET 3.23953 8.30385 0
            CHANNELS 6 Xposition Yposition Zposition Zrotation Xrotation Yrotation
            JOINT LeftShoulder
            {
              OFFSET 15.1725 0 0
              CHANNELS 6 Xposition Yposition Zposition Zrotation Xrotation Yrotation
              JOINT LeftElbow
              {
                OFFSET 32.4113 0 0
                CHANNELS 6 Xposition Yposition Zposition Zrotation Xrotation Yrotation
                JOINT LeftWrist
                {
                  OFFSET 26.4919 0 1.08131
                  CHANNELS 6 Xposition Yposition Zposition Zrotation Xrotation Yrotation
                  End Site
                  {
                    OFFSET 0 0 0
                  }
                }
              }
            }
          }
        }
      }
    }
  }
  JOINT RightHip
  {
    OFFSET -8.63674 0.00547028 0
    CHANNELS 6 Xposition Yposition Zposition Zrotation Xrotation Yrotation
    JOINT RightKnee
    {
      OFFSET -2.94969e-005 -44.4932 -2.13962
      CHANNELS 6 Xposition Yposition Zposition Zrotation Xrotation Yrotation
      JOINT RightAnkle
      {
        OFFSET 0 -43.4407 -3.54051
        CHANNELS 6 Xposition Yposition Zposition Zrotation Xrotation Yrotation
        JOINT RightToe
        {
          OFFSET 0 -8.39271 19.1252
          CHANNELS 6 Xposition Yposition Zposition Zrotation Xrotation Yrotation
          End Site
          {
            OFFSET 0 0 0
          }
        }
      }
    }
  }
  JOINT LeftHip
  {
    OFFSET 8.63674 0.00547028 0
    CHANNELS 6 Xposition Yposition Zposition Zrotation Xrotation Yrotation
    JOINT LeftKnee
    {
      OFFSET 1.11286e-005 -44.4932 -2.13963
      CHANNELS 6 Xposition Yposition Zposition Zrotation Xrotation Yrotation
      JOINT LeftAnkle
      {
        OFFSET 0 -43.4408 -3.54051
        CHANNELS 6 Xposition Yposition Zposition Zrotation Xrotation Yrotation
        JOINT LeftToe
        {
          OFFSET 0 -8.39271 19.1252
          CHANNELS 6 Xposition Yposition Zposition Zrotation Xrotation Yrotation
          End Site
          {
            OFFSET 0 0 0
          }
        }
      }
    }
  }
}
MOTION
Frames:	7
Frame Time:	0.0333333
14.1748 96.0872 -11.6108 0.0100732 0.00972219 -90.028 1.77636e-015 10.5691 -1.07958 0.0046977 -0.00214371 0.00424375 -4.26326e-014 11.6675 1.08235 0.00939514 -0.00426677 0.00849176 0 10.5876 -3.20758e-007 0.00939514 -0.00426677 0.00848218 0 10.5876 -3.20758e-007 0.00939514 -0.00426677 0.0084889 1.93647e-006 14.88 -7.71215e-006 0.000689828 -0.16581 -0.0472202 -8.34888e-014 9.61472 2.16553 -0.0310149 0.198455 -0.0396825 -3.23953 8.30385 0 -4.19138e-039 1.23708e-018 1.94126e-019 -15.1725 -4.76837e-006 8.49733e-008 -3.27059 -22.4789 -6.56407 -32.4113 -8.97005e-006 8.16138e-006 5.97325 1.10515 3.63884 -26.4919 3.90148e-006 1.0813 13.1613 0.543489 2.98317 3.23953 8.30385 -1.77636e-015 -4.19138e-039 1.23708e-018 1.94126e-019 15.1725 -4.76837e-006 -1.82237e-006 0.701873 -25.8729 4.6102 32.4113 1.37714e-006 -6.07927e-006 -7.73902 2.23986 0.597819 26.4919 3.73804e-007 1.08131 3.56346 -0.247777 -6.22299 -8.63674 0.00547028 9.53674e-007 -4.02154 -2.75644 -3.95052 -2.94969e-005 -44.4932 -2.13962 4.16954 3.12413 3.64025 -1.37399e-006 -43.4407 -3.54051 -0.369399 -0.158319 0.0309041 1.51341e-007 -8.39271 19.1252 -0.314786 0.384386 0.200861 8.63674 0.00547028 -1.90735e-006 4.02157 -2.2294 3.84339 1.11286e-005 -44.4932 -2.13963 -4.27586 2.68096 -3.64012 -7.31597e-007 -43.4408 -3.54051 0.639758 -0.278434 -0.0132237 3.47266e-006 -8.39271 19.1252 -0.0429442 0.0507983 0.0790143 
14.205 96.0594 -11.6284 0.0027792 0.11239 -90.0255 1.77636e-015 10.5691 -1.07958 0.0201903 -0.00909862 0.0150016 -4.44089e-014 11.6675 1.08235 0.0400734 -0.0181886 0.0300251 0 10.5876 -3.20758e-007 0.0400734 -0.0181886 0.0299916 0 10.5876 -3.20758e-007 0.0400734 -0.0181886 0.0300169 1.93647e-006 14.88 -7.71215e-006 0.0193555 -0.61719 -0.19739 -8.17124e-014 9.61472 2.16553 -0.159657 0.730704 -0.154406 -3.23953 8.30385 0 -3.34123e-037 -1.54087e-018 -1.2424e-017 -15.1725 -4.76837e-006 8.49733e-008 -2.96849 -22.6966 -6.55149 -32.4113 -8.97005e-006 8.16138e-006 5.7923 1.38926 3.55225 -26.4919 3.90148e-006 1.0813 12.7648 0.565458 3.32157 3.23953 8.30385 0 -3.34123e-037 -1.54087e-018 -1.2424e-017 15.1725 -4.76837e-006 -1.82237e-006 0.83788 -25.8055 4.60542 32.4113 1.37714e-006 -6.07927e-006 -7.78077 2.22677 0.624093 26.4919 3.73804e-007 1.08131 3.27336 -0.228548 -6.25644 -8.63674 0.00547028 9.53674e-007 -3.92515 -2.8747 -3.94187 -2.94969e-005 -44.4932 -2.13962 4.15144 3.32921 3.61244 -1.37399e-006 -43.4407 -3.54051 -0.499054 -0.166256 -0.188114 1.51341e-007 -8.39271 19.1252 -1.79846 2.52445 0.880178 8.63674 0.00547028 -1.90735e-006 4.03963 -2.49363 3.85669 1.11286e-005 -44.4932 -2.13963 -4.13124 3.21289 -3.70323 -7.31597e-007 -43.4408 -3.54051 0.857494 -0.563717 0.0627522 3.47266e-006 -8.39271 19.1252 0.0816097 -0.128584 0.198724 
14.195 96.0926 -11.6468 -0.0858886 0.114704 -90.0336 1.77636e-015 10.5691 -1.07958 0.0245503 -0.0129991 0.0120142 -4.44089e-014 11.6675 1.08235 0.0516734 -0.0259709 0.0240602 0 10.5876 -3.20758e-007 0.0516734 -0.0259709 0.0240433 -1.77636e-015 10.5876 -3.20758e-007 0.0516734 -0.0259709 0.0240584 1.93647e-006 14.88 -7.71215e-006 0.0947982 -0.549168 -0.259913 -8.34888e-014 9.61472 2.16553 -0.332873 0.596902 -0.155743 -3.23953 8.30385 -1.77636e-015 -9.5633e-036 -4.41029e-017 -1.2424e-017 -15.1725 -4.76837e-006 8.49733e-008 -2.79517 -22.9912 -6.36996 -32.4113 -8.97005e-006 8.16138e-006 5.71905 1.20344 3.50984 -26.4919 3.90148e-006 1.0813 12.9042 0.545186 3.08812 3.23953 8.30385 0 -9.5633e-036 -4.41029e-017 -1.2424e-017 15.1725 -4.76837e-006 -1.82237e-006 0.766365 -25.9961 4.61696 32.4113 1.37714e-006 -6.07927e-006 -7.67821 2.26193 0.712752 26.4919 3.73804e-007 1.08131 3.20974 -0.226437 -6.33891 -8.63674 0.00547028 9.53674e-007 -3.87424 -2.64745 -3.89675 -2.94969e-005 -44.4932 -2.13962 4.15287 3.02372 3.70982 -1.37399e-006 -43.4407 -3.54051 -0.616811 0.0387201 -0.381993 1.51341e-007 -8.39271 19.1252 -4.40106 7.4492 1.1569 8.63674 0.00547028 -1.90735e-006 4.13369 -2.29459 3.81693 1.11286e-005 -44.4932 -2.13963 -4.22889 3.00892 -3.25104 -7.31597e-007 -43.4408 -3.54051 0.378332 -0.620272 -0.445155 3.47266e-006 -8.39271 19.1252 -0.361122 0.485941 0.0385208 
14.1836 96.0935 -11.664 -0.0252753 0.139292 -90.0729 3.55271e-015 10.5691 -1.07958 0.027247 -0.0160041 0.019671 -4.26326e-014 11.6675 1.08235 0.0568697 -0.0319941 0.039361 0 10.5876 -3.20758e-007 0.0568696 -0.0319941 0.0393572 1.77636e-015 10.5876 -3.20758e-007 0.0568697 -0.0319941 0.0393561 1.93647e-006 14.88 -7.71215e-006 0.210713 -0.806679 -0.348283 -8.17124e-014 9.61472 2.16553 -0.534443 0.774053 -0.158324 -3.23953 8.30385 1.77636e-015 -1.2424e-017 -2.1463e-017 1.2424e-017 -15.1725 -4.76837e-006 8.49733e-008 -2.77479 -22.9259 -6.33592 -32.4113 -8.97005e-006 8.16138e-006 5.79732 1.15944 3.45788 -26.4919 3.90148e-006 1.0813 12.716 0.52969 3.0216 3.23953 8.30385 0 -1.2424e-017 -2.1463e-017 1.2424e-017 15.1725 -4.76837e-006 -1.82237e-006 0.727114 -26.1048 4.53132 32.4113 1.37714e-006 -6.07927e-006 -7.65394 2.24895 0.836735 26.4919 3.73804e-007 1.08131 3.31629 -0.232878 -6.30202 -8.63674 0.00547028 9.53674e-007 -3.83564 -2.66432 -3.8885 -2.94969e-005 -44.4932 -2.13962 4.12576 2.90748 3.63816 -1.37399e-006 -43.4407 -3.54051 -0.399224 0.135236 -0.182275 1.51341e-007 -8.39271 19.1252 -5.93369 10.236 1.46349 8.63674 0.00547028 -1.90735e-006 4.17354 -2.39866 3.86214 1.11286e-005 -44.4932 -2.13963 -4.24202 3.11644 -3.31282 -7.31597e-007 -43.4408 -3.54051 0.4044 -0.696532 -0.46278 3.47266e-006 -8.39271 19.1252 -0.419358 0.529668 0.384256 
14.1739 96.0907 -11.6714 -0.0625932 0.13899 -90.0238 1.77636e-015 10.5691 -1.07958 0.0294652 -0.007552 0.0155463 -4.26326e-014 11.6675 1.08235 0.0377184 -0.0150518 0.0311112 0 10.5876 -3.20758e-007 0.0377185 -0.0150517 0.0311262 -1.77636e-015 10.5876 -3.20758e-007 0.0377184 -0.0150517 0.031123 1.93647e-006 14.88 -7.71215e-006 0.307451 -0.8877 -0.284959 -8.34888e-014 9.61472 2.16553 -0.534501 0.752917 -0.0721916 -3.23953 8.30385 1.77636e-015 1.23126e-036 5.67818e-018 -1.2424e-017 -15.1725 -4.76837e-006 8.49733e-008 -2.89741 -22.723 -6.35448 -32.4113 -8.97005e-006 8.16138e-006 5.96549 1.181 3.40498 -26.4919 3.90148e-006 1.0813 12.6784 0.532216 3.05827 3.23953 8.30385 1.77636e-015 1.23126e-036 5.67818e-018 -1.2424e-017 15.1725 -4.76837e-006 -1.82237e-006 0.779624 -26.1127 4.52258 32.4113 1.37714e-006 -6.07927e-006 -7.6588 2.22645 0.838193 26.4919 3.73804e-007 1.08131 3.26058 -0.22786 -6.26325 -8.63674 0.00547028 9.53674e-007 -3.84853 -2.67847 -3.94592 -2.94969e-005 -44.4932 -2.13962 4.14547 3.08733 3.72426 -1.37399e-006 -43.4407 -3.54051 -0.471003 -0.0499548 -0.147286 1.51341e-007 -8.39271 19.1252 -5.43495 9.8338 1.04229 8.63674 0.00547028 -1.90735e-006 4.1672 -2.31388 3.80181 1.11286e-005 -44.4932 -2.13963 -4.22574 3.02539 -3.2593 -7.31597e-007 -43.4408 -3.54051 0.423625 -0.699793 -0.476356 3.47266e-006 -8.39271 19.1252 -0.532332 0.695018 0.25664 
14.1848 96.0965 -11.6962 -0.0803893 0.130396 -89.988 0 10.5691 -1.07958 0.0311791 -0.0145661 0.0104353 -4.44089e-014 11.6675 1.08235 0.0459939 -0.0291844 0.0206038 1.77636e-015 10.5876 -3.20758e-007 0.0459938 -0.0291844 0.0206009 0 10.5876 -3.20758e-007 0.0459938 -0.0291844 0.0206024 1.93647e-006 14.88 -7.71215e-006 0.106934 -0.731218 -0.297579 -7.99361e-014 9.61472 2.16553 -0.392888 0.651272 -0.172279 -3.23953 8.30385 -1.77636e-015 6.24574e-036 -2.88034e-017 1.2424e-017 -15.1725 -4.76837e-006 8.49733e-008 -3.14622 -22.2157 -6.50329 -32.4113 -8.97005e-006 8.16138e-006 6.05966 1.29574 3.51492 -26.4919 3.90148e-006 1.0813 12.6852 0.54903 3.20692 3.23953 8.30385 -3.55271e-015 6.24574e-036 -2.88034e-017 1.2424e-017 15.1725 -4.76837e-006 -1.82237e-006 0.782138 -26.0744 4.54896 32.4113 1.37714e-006 -6.07927e-006 -7.66948 2.22196 0.82453 26.4919 3.73804e-007 1.08131 3.02752 -0.212564 -6.29496 -8.63674 0.00547028 9.53674e-007 -3.82288 -2.71764 -3.98406 -2.94969e-005 -44.4932 -2.13962 4.11429 3.21574 3.70039 -1.37399e-006 -43.4407 -3.54051 -0.715154 -0.0766669 -0.460705 1.51341e-007 -8.39271 19.1252 -2.07057 2.69998 1.14926 8.63674 0.00547028 -1.90735e-006 4.17457 -2.32373 3.81502 1.11286e-005 -44.4932 -2.13963 -4.23047 3.07763 -3.21094 -7.31597e-007 -43.4408 -3.54051 0.422337 -0.69435 -0.445405 3.47266e-006 -8.39271 19.1252 -0.648797 0.877105 0.0244279 
14.1833 96.1003 -11.7058 -0.0979555 0.130467 -89.9583 1.77636e-015 10.5691 -1.07958 0.0323458 -0.0156078 0.00109661 -4.26326e-014 11.6675 1.08235 0.0486856 -0.030396 0.00533738 0 10.5876 -3.20758e-007 0.0486856 -0.030396 0.00532124 1.77636e-015 10.5876 -3.20758e-007 0.0486856 -0.030396 0.00535964 1.93647e-006 14.88 -7.71215e-006 0.115878 -0.790194 -0.281457 -8.17124e-014 9.61472 2.16553 -0.453917 0.79007 -0.138881 -3.23953 8.30385 -1.77636e-015 6.21202e-018 -3.85643e-017 -0 -15.1725 -4.76837e-006 8.49733e-008 -3.11395 -22.2381 -6.39025 -32.4113 -8.97005e-006 8.16138e-006 6.08213 1.28872 3.48595 -26.4919 3.90148e-006 1.0813 12.587 0.54317 3.19223 3.23953 8.30385 0 6.21202e-018 -3.85643e-017 -0 15.1725 -4.76837e-006 -1.82237e-006 0.783218 -26.0936 4.58729 32.4113 1.37714e-006 -6.07927e-006 -7.65398 2.25965 0.815657 26.4919 3.73804e-007 1.08131 3.0119 -0.211825 -6.37898 -8.63674 0.00547028 9.53674e-007 -3.83045 -2.64519 -4.00243 -2.94969e-005 -44.4932 -2.13962 4.14385 3.11616 3.78792 -1.37399e-006 -43.4407 -3.54051 -0.719561 0.0117484 -0.506521 1.51341e-007 -8.39271 19.1252 -1.94955 2.59208 1.0621 8.63674 0.00547028 -1.90735e-006 4.20239 -2.32069 3.88059 1.11286e-005 -44.4932 -2.13963 -4.24365 3.11559 -3.32206 -7.31597e-007 -43.4408 -3.54051 0.257852 -0.669201 -0.580145 3.47266e-006 -8.39271 19.1252 -0.37357 0.440727 0.657941 
